<svg width="20" height="24" viewBox="0 0 20 24" fill="none" xmlns="http://www.w3.org/2000/svg">
<g clip-path="url(#clip0_10839_49478)">
<path d="M16.2898 12.7261C16.3234 16.3512 19.47 17.5576 19.5048 17.573C19.4781 17.658 19.002 19.292 17.8471 20.9799C16.8487 22.4392 15.8124 23.893 14.1801 23.9231C12.5762 23.9527 12.0604 22.972 10.2267 22.972C8.39347 22.972 7.82044 23.893 6.30211 23.9527C4.7265 24.0123 3.52665 22.3748 2.52002 20.9208C0.462877 17.9469 -1.10916 12.517 1.0017 8.85181C2.05031 7.03162 3.92436 5.87909 5.95834 5.84952C7.50554 5.82004 8.96596 6.89044 9.91179 6.89044C10.857 6.89044 12.6317 5.6032 14.4974 5.79223C15.2783 5.82476 17.4708 6.10766 18.8786 8.16831C18.765 8.23863 16.2626 9.69547 16.2898 12.7262M13.2754 3.82469C14.112 2.81211 14.675 1.40259 14.5214 0C13.3156 0.0484571 11.8576 0.803505 10.9927 1.81547C10.2176 2.7117 9.53884 4.14606 9.722 5.52084C11.066 5.62484 12.4389 4.83787 13.2754 3.82469Z" fill="white"/>
</g>
<defs>
<clipPath id="clip0_10839_49478">
<rect width="19.5048" height="24" fill="white"/>
</clipPath>
</defs>
</svg>
