<svg width="24" height="24" viewBox="0 0 24 24" fill="none" xmlns="http://www.w3.org/2000/svg">
<g clip-path="url(#clip0_10839_48378)">
<path fill-rule="evenodd" clip-rule="evenodd" d="M12 0C18.6274 0 24 5.37262 24 12C24 17.9896 19.6117 22.954 13.875 23.8542V15.4688H16.6711L17.2031 12H13.875V9.74906C13.875 9.57387 13.8908 9.3995 13.9261 9.23162C14.0578 8.60372 14.4604 8.06654 15.3186 7.9166C15.474 7.88945 15.6443 7.875 15.8306 7.875H17.3438V4.92188C17.3438 4.92188 15.9705 4.6875 14.6576 4.6875C14.6576 4.6875 14.6576 4.6875 14.6575 4.6875C14.5719 4.6875 14.4872 4.68912 14.4035 4.69236C14.2866 4.69687 14.1717 4.70452 14.0586 4.71527C12.6313 4.85108 11.5105 5.4826 10.8364 6.55737C10.3769 7.28994 10.125 8.22844 10.125 9.35625V12H7.07812V15.4688H10.125V23.8542C4.38825 22.954 0 17.9895 0 12C0 5.37262 5.37262 0 12 0Z" fill="white"/>
</g>
<defs>
<clipPath id="clip0_10839_48378">
<rect width="24" height="24" fill="white"/>
</clipPath>
</defs>
</svg>
